This is a re-up of the earlier file which would not connect  to anyone.                                       														 							There are two versions to choose from.  																								                                                 The original MP4 with AAC audio and my remux with AC3 and in MKV format.																																																		Enjoy and please share.																																																																								               TTLTTLTTLTTLTTLTTLTTLTTLTTLTTLTTLTTLTTLTTLTTLTTLTTLTTLTTLTTLTTLTTLTTLTTL																																																																											2nd_WATCH_Falling_Skies_S02_E06_AC3_TTL.mkv
Format                           : Matroska
File size                        : 129 MiB
Duration                         : 12mn 46s
Overall bit rate                 : 1 409 Kbps
Movie name                       : Jane.By.Design.S01E15.720p.WEB.DL.DD5.1.H.264.KiNGS.mkv 8682
Encoded date                     : UTC 2012-07-16 07:03:44
Writing application              : mkvmerge v2.4.0 ('Fumbling Towards Ecstasy') built on Oct 11 2008 20:13:15
Writing library                  : libebml v0.7.7 + libmatroska v0.8.1

Video
ID                               : 2
Format                           : AVC
Format/Info                      : Advanced Video Codec
Format profile                   : Baseline@L3.0
Format settings, CABAC           : No
Format settings, ReFrames        : 2 frames
Muxing mode                      : Container profile=Unknown@3.0
Codec ID                         : V_MPEG4/ISO/AVC
Duration                         : 12mn 46s
Bit rate                         : 1 061 Kbps
Width                            : 640 pixels
Height                           : 360 pixels
Display aspect ratio             : 16:9
Frame rate                       : 29.970 fps
Resolution                       : 8 bits
Colorimetry                      : 4:2:0
Scan type                        : Progressive
Bits/(Pixel*Frame)               : 0.154
Stream size                      : 96.9 MiB (75%)
Color primaries                  : BT.601-6 525, BT.1358 525, BT.1700 NTSC, SMPTE 170M
Transfer characteristics         : BT.709-5, BT.1361
Matrix coefficients              : BT.601-6 525, BT.1358 525, BT.1700 NTSC, SMPTE 170M

Audio
ID                               : 1
Format                           : AC-3
Format/Info                      : Audio Coding 3
Codec ID                         : A_AC3
Duration                         : 12mn 46s
Bit rate mode                    : Constant
Bit rate                         : 320 Kbps
Channel(s)                       : 2 channels
Channel positions                : L R
Sampling rate                    : 48.0 KHz
Stream size                      : 29.3 MiB (23%)







